<svg xmlns="http://www.w3.org/2000/svg" width="875" height="240" viewBox="0 0 875 240" role="img" aria-labelledby="title"><title id="title">Archify</title><desc>Archify symbol and outlined Rubik wordmark. Transparent background.</desc><g transform="translate(0 20) scale(.55)"><path d="M151 94 81 164C67 178 60 191 60 212V248H97V212C97 204 100 199 106 193L179 120Z" fill="#0856F5"/>
  <path d="M238 135C252 132 261 126 270 116L321 167C334 180 339 194 339 213V248H303V213C303 204 300 199 294 193Z" fill="#1DBBB7"/>
  <rect x="146" y="16" width="110" height="104" rx="30" fill="#0856F5"/>
  <rect x="18" y="238" width="110" height="104" rx="28" fill="#0856F5"/>
  <rect x="274" y="238" width="108" height="104" rx="28" fill="#1DBBB7"/></g><g fill="#F8FAFC"><path d="M279.71 150.77 270.09 175.375Q268.425 180.0 262.875 180.0H256.03Q254.365 180.0 253.16250000000002 178.7975Q251.96 177.595 251.96 175.93Q251.96 175.005 252.7 173.34L298.025 56.605000000000004Q300.43 50.5 306.35 50.5H317.45Q323.37 50.5 325.775 56.605000000000004L370.91499999999996 173.34Q371.655 175.005 371.655 175.93Q371.655 177.595 370.4525 178.7975Q369.25 180.0 367.585 180.0H360.74Q355.19 180.0 353.525 175.375L343.905 150.77ZM337.43 134.12 311.9 68.075 286.185 134.12Z"/><path d="M439.51 88.795V94.715Q439.51 96.75 438.03 98.23Q436.55 99.71000000000001 434.515 99.71000000000001H423.785Q413.425 99.71000000000001 407.9675 105.1675Q402.51 110.625 402.51 120.985V175.005Q402.51 177.04 401.03 178.51999999999998Q399.55 180.0 397.515 180.0H390.67Q388.635 180.0 387.155 178.51999999999998Q385.675 177.04 385.675 175.005V88.795Q385.675 86.76 387.155 85.28Q388.635 83.8 390.67 83.8H397.515Q399.55 83.8 401.03 85.28Q402.51 86.76 402.51 88.795V94.53Q406.21000000000004 88.98 411.39 86.39Q416.57 83.8 424.895 83.8H434.515Q436.55 83.8 438.03 85.28Q439.51 86.76 439.51 88.795Z"/><path d="M516.4300000000001 151.51Q517.725 148.735 519.02 147.625Q520.315 146.515 522.535 146.515H528.085Q530.12 146.515 531.6 147.90249999999997Q533.08 149.29 533.08 151.14Q533.08 157.43 528.085 164.645Q523.09 171.86 513.655 176.85500000000002Q504.22 181.85 491.45500000000004 181.85Q478.32 181.85 468.70000000000005 176.3Q459.08000000000004 170.75 453.90000000000003 161.0375Q448.72 151.325 448.165 139.3Q447.98 137.07999999999998 447.98 130.79Q447.98 126.35 448.165 124.5Q449.83000000000004 105.63 460.93000000000006 93.78999999999999Q472.03000000000003 81.95 491.45500000000004 81.95Q504.22 81.95 513.5625 86.85249999999999Q522.905 91.755 527.8075 98.8775Q532.71 106.0 533.08 112.29Q533.265 114.325 531.6925 115.805Q530.12 117.285 528.085 117.285H522.535Q520.315 117.285 519.02 116.175Q517.725 115.065 516.4300000000001 112.29Q509.95500000000004 97.86 491.45500000000004 97.86Q481.28000000000003 97.86 473.69500000000005 104.705Q466.11 111.55 465.0 125.425Q464.815 127.46000000000001 464.815 132.085Q464.815 136.34 465.0 138.375Q466.295 152.25 473.7875 159.095Q481.28000000000003 165.94 491.45500000000004 165.94Q509.95500000000004 165.94 516.4300000000001 151.51Z"/><path d="M632.755 180.0H625.91Q623.875 180.0 622.395 178.51999999999998Q620.915 177.04 620.915 175.005V126.16499999999999Q620.915 112.29 614.0699999999999 105.075Q607.2249999999999 97.86 595.015 97.86Q582.99 97.86 576.0525 105.075Q569.115 112.29 569.115 126.16499999999999V175.005Q569.115 177.04 567.635 178.51999999999998Q566.155 180.0 564.12 180.0H557.275Q555.24 180.0 553.76 178.51999999999998Q552.28 177.04 552.28 175.005V53.644999999999996Q552.28 51.610000000000014 553.76 50.13000000000001Q555.24 48.650000000000006 557.275 48.650000000000006H564.12Q566.155 48.650000000000006 567.635 50.13000000000001Q569.115 51.610000000000014 569.115 53.644999999999996V94.53Q573.185 89.165 580.3074999999999 85.5575Q587.43 81.95 597.79 81.95Q609.4449999999999 81.95 618.51 86.945Q627.5749999999999 91.94 632.6624999999999 101.2825Q637.75 110.625 637.75 123.39V175.005Q637.75 177.04 636.27 178.51999999999998Q634.79 180.0 632.755 180.0Z"/><path d="M675.265 69.185H664.7199999999999Q662.685 69.185 661.2049999999999 67.705Q659.7249999999999 66.225 659.7249999999999 64.19V53.644999999999996Q659.7249999999999 51.610000000000014 661.2049999999999 50.13000000000001Q662.685 48.650000000000006 664.7199999999999 48.650000000000006H675.265Q677.3 48.650000000000006 678.78 50.13000000000001Q680.26 51.610000000000014 680.26 53.644999999999996V64.19Q680.26 66.225 678.78 67.705Q677.3 69.185 675.265 69.185ZM673.415 180.0H666.5699999999999Q664.535 180.0 663.055 178.51999999999998Q661.5749999999999 177.04 661.5749999999999 175.005V88.795Q661.5749999999999 86.76 663.055 85.28Q664.535 83.8 666.5699999999999 83.8H673.415Q675.4499999999999 83.8 676.93 85.28Q678.41 86.76 678.41 88.795V175.005Q678.41 177.04 676.93 178.51999999999998Q675.4499999999999 180.0 673.415 180.0Z"/><path d="M753.665 83.8Q755.6999999999999 83.8 757.18 85.28Q758.66 86.76 758.66 88.795V94.715Q758.66 96.75 757.18 98.23Q755.6999999999999 99.71000000000001 753.665 99.71000000000001H730.17V175.005Q730.17 177.04 728.6899999999999 178.51999999999998Q727.2099999999999 180.0 725.175 180.0H718.3299999999999Q716.295 180.0 714.8149999999999 178.51999999999998Q713.3349999999999 177.04 713.3349999999999 175.005V99.71000000000001H697.795Q695.76 99.71000000000001 694.28 98.23Q692.8 96.75 692.8 94.715V88.795Q692.8 86.76 694.28 85.28Q695.76 83.8 697.795 83.8H713.3349999999999V74.55Q713.3349999999999 58.64 720.7349999999999 50.87Q728.135 43.099999999999994 743.86 43.099999999999994H755.515Q757.55 43.099999999999994 759.03 44.58Q760.51 46.06 760.51 48.095V54.015Q760.51 56.05 759.03 57.53Q757.55 59.010000000000005 755.515 59.010000000000005H745.7099999999999Q736.645 59.010000000000005 733.4075 63.265Q730.17 67.52 730.17 75.475V83.8Z"/><path d="M795.25 215.15H787.665Q785.8149999999999 215.15 784.52 213.85500000000002Q783.2249999999999 212.56 783.2249999999999 210.71Q783.2249999999999 209.97 783.41 209.415L801.17 170.75L764.54 89.535Q764.3549999999999 88.98 764.3549999999999 88.24Q764.3549999999999 86.39 765.6499999999999 85.095Q766.9449999999999 83.8 768.795 83.8H776.38Q780.0799999999999 83.8 781.7449999999999 88.24L810.2349999999999 151.14L839.0949999999999 88.24Q840.76 83.8 844.4599999999999 83.8H852.045Q853.895 83.8 855.1899999999999 85.095Q856.4849999999999 86.39 856.4849999999999 88.24Q856.4849999999999 88.98 856.3 89.535L800.6149999999999 210.71Q798.9499999999999 215.15 795.25 215.15Z"/></g></svg>
